<?xml version="1.0" encoding="UTF-8"?>
<svg width="300px" height="56px" viewBox="0 0 300 56" version="1.1" xmlns="http://www.w3.org/2000/svg" xmlns:xlink="http://www.w3.org/1999/xlink">
    <!-- Generator: Sketch 42 (36781) - http://www.bohemiancoding.com/sketch -->
    <title>sprite</title>
    <desc>Created with Sketch.</desc>
    <defs></defs>
    <g id="Page-1" stroke="none" stroke-width="1" fill="none" fill-rule="evenodd">
        <g id="sprite" fill="#FFFFFF">
            <g id="takenew">
                <path d="M17.8392987,50.9854679 C18.8802135,50.9854679 19.8856276,50.9087267 20.8555709,50.7552421 C21.8255143,50.6017574 22.5943604,50.4423718 23.1621321,50.2770806 L23.1621321,54.77534 C22.5233889,55.0823094 21.5830311,55.3361456 20.3410304,55.5368564 C19.0990297,55.7375671 17.9812459,55.837921 16.9876453,55.837921 C9.46466987,55.837921 5.70323855,51.8827981 5.70323855,43.9724336 L5.70323855,20.8790074 L0.132006268,20.8790074 L0.132006268,18.0454582 L5.70323855,15.601522 L8.18722747,7.31339054 L11.5938408,7.31339054 L11.5938408,16.3099093 L22.8782476,16.3099093 L22.8782476,20.8790074 L11.5938408,20.8790074 L11.5938408,43.7244981 C11.5938408,46.0621879 12.1497757,47.8567511 13.261662,49.1082416 C14.3735483,50.3597321 15.8994119,50.9854679 17.8392987,50.9854679 Z M54.8507336,55.1295337 L53.6797102,49.6041127 L53.3958258,49.6041127 C51.455939,52.0362546 49.5219955,53.6832386 47.5939374,54.5451142 C45.6658792,55.4069897 43.2587997,55.837921 40.3726267,55.837921 C36.5165104,55.837921 33.4943541,54.8461887 31.3060672,52.8626943 C29.1177803,50.8791999 28.0236533,48.0574854 28.0236533,44.397466 C28.0236533,36.5579406 34.3045338,32.4493353 46.8664835,32.0715269 L53.4667969,31.8590107 L53.4667969,29.4504938 C53.4667969,26.4044132 52.8103207,24.155306 51.4973485,22.7031048 C50.1843764,21.2509035 48.0848353,20.5248138 45.1986623,20.5248138 C41.957632,20.5248138 38.2908279,21.5165461 34.19814,23.5000405 L32.3883766,19.0017811 C34.3046062,17.9628078 36.4041473,17.1481706 38.6870628,16.5578449 C40.9699783,15.9675192 43.2587738,15.6723608 45.5535179,15.6723608 C50.1903204,15.6723608 53.6264707,16.6995121 55.8620719,18.7538455 C58.0976731,20.808179 59.2154569,24.102147 59.2154569,28.6358484 L59.2154569,55.1295337 L54.8507336,55.1295337 Z M41.5436501,50.9854679 C45.2105092,50.9854679 48.0907247,49.9819293 50.1843829,47.9748219 C52.2780412,45.9677145 53.3248547,43.1578063 53.3248547,39.545013 L53.3248547,36.0384958 L47.4342524,36.2864313 C42.7501356,36.4517225 39.3731272,37.1778123 37.3031261,38.4647223 C35.233125,39.7516324 34.19814,41.7528065 34.19814,44.4683047 C34.19814,46.5934773 34.8427878,48.2109454 36.1321028,49.3207578 C37.4214178,50.4305701 39.2252488,50.9854679 41.5436501,50.9854679 Z M77.1711483,35.2592698 C78.1884059,33.818875 79.7379264,31.9298611 81.8197561,29.5921713 L94.3816429,16.3099093 L101.372297,16.3099093 L85.6167106,32.8507529 L102.47235,55.1295337 L95.3397529,55.1295337 L81.6068428,36.7823025 L77.1711483,40.6075939 L77.1711483,55.1295337 L71.3515171,55.1295337 L71.3515171,0.0170012953 L77.1711483,0.0170012953 L77.1711483,29.2379777 C77.1711483,30.5366942 77.0765211,32.5437715 76.8872638,35.2592698 L77.1711483,35.2592698 Z M124.473394,55.837921 C118.724706,55.837921 114.188514,54.0905831 110.864684,50.5958549 C107.540853,47.1011267 105.878963,42.2487222 105.878963,36.0384958 C105.878963,29.7810433 107.422569,24.8105754 110.509828,21.126943 C113.597087,17.4433106 117.742941,15.601522 122.947515,15.601522 C127.820889,15.601522 131.676948,17.2012807 134.515807,20.400846 C137.354665,23.6004113 138.774073,27.8211768 138.774073,33.0632691 L138.774073,36.7823025 L111.982479,36.7823025 C112.100764,41.3396169 113.254033,44.7988737 115.44232,47.1601765 C117.630607,49.5214793 120.711906,50.702113 124.686308,50.702113 C128.873624,50.702113 133.013564,49.8284441 137.106252,48.08108 L137.106252,53.323146 C135.024423,54.2204411 133.054994,54.8638865 131.197907,55.2535015 C129.34082,55.6431164 127.099339,55.837921 124.473394,55.837921 Z M122.876544,20.5248138 C119.7538,20.5248138 117.263922,21.5401588 115.406835,23.5708792 C113.549748,25.6015996 112.455621,28.4115079 112.124421,32.0006881 L132.457644,32.0006881 C132.457644,28.2934427 131.629656,25.4540187 129.973656,23.4823308 C128.317655,21.5106429 125.951975,20.5248138 122.876544,20.5248138 Z M172.73375,55.1295337 L172.73375,33.2403659 C172.73375,30.5720937 172.349327,28.5591133 171.58047,27.2013642 C170.811612,25.843615 169.575544,25.1647506 167.872229,25.1647506 C165.530171,25.1647506 163.83871,26.0974513 162.797795,27.9628805 C161.75688,29.8283097 161.23643,33.0278271 161.23643,37.5615285 L161.23643,55.1295337 L147.361578,55.1295337 L147.361578,14.9993928 L157.829817,14.9993928 L159.568609,19.958104 L160.384777,19.958104 C161.567635,18.0690617 163.205868,16.6523012 165.299526,15.7077801 C167.393185,14.763259 169.800264,14.2910055 172.520837,14.2910055 C176.968382,14.2910055 180.428189,15.5778962 182.900362,18.1517163 C185.372535,20.7255364 186.608603,24.3500819 186.608603,29.0254615 L186.608603,55.1295337 L172.73375,55.1295337 Z M215.45836,55.837921 C208.763385,55.837921 203.564803,54.0610673 199.862458,50.5073065 C196.160113,46.9535458 194.308968,41.8945303 194.308968,35.3301085 C194.308968,28.5531694 196.024087,23.3524779 199.454374,19.7278781 C202.884662,16.1032782 207.781619,14.2910055 214.145394,14.2910055 C220.201626,14.2910055 224.879758,15.8671515 228.179932,19.0194908 C231.480105,22.17183 233.130167,26.7113666 233.130167,32.6382367 L233.130167,38.8012063 L208.325763,38.8012063 C208.420392,41.044444 209.242466,42.8035882 210.792009,44.0786917 C212.341553,45.3537952 214.452922,45.9913374 217.126181,45.9913374 C219.562868,45.9913374 221.80435,45.7611139 223.850694,45.3006598 C225.897038,44.8402058 228.114863,44.0550843 230.504236,42.945272 L230.504236,52.8981137 C228.327777,54.007926 226.080381,54.7753379 223.76198,55.2003724 C221.443579,55.6254069 218.675733,55.837921 215.45836,55.837921 Z M214.642192,23.7125567 C213.009848,23.7125567 211.643668,24.2261323 210.54361,25.2532991 C209.443553,26.2804658 208.798905,27.8920308 208.609648,30.0880424 L220.532794,30.0880424 C220.48548,28.1517741 219.935459,26.605144 218.882716,25.4481056 C217.829973,24.2910672 216.416479,23.7125567 214.642192,23.7125567 Z M274.115984,55.1295337 L269.573833,36.0030764 L268.509266,30.2297199 L267.799555,25.589783 L267.586642,25.589783 C266.427441,32.2014309 265.646766,36.3690679 265.244595,38.092819 L261.163756,55.1295337 L246.579192,55.1295337 L235.614156,14.9993928 L249.276095,14.9993928 L252.540766,30.4068167 C253.581681,35.696135 254.184929,40.0880924 254.350529,43.5828206 L254.563442,43.5828206 C254.634414,41.410422 255.284976,37.278204 256.515148,31.1860427 L260.241131,14.9993928 L275.570892,14.9993928 L278.977505,31.3985589 C280.065734,36.6170382 280.751781,40.6784181 281.035667,43.5828206 L281.248581,43.5828206 C281.390524,41.7882304 281.627092,39.5509296 281.958292,36.8708509 C282.289492,34.1907722 282.656172,32.0361157 283.058344,30.4068167 L286.6069,14.9993928 L299.984954,14.9993928 L288.948946,55.1295337 L274.115984,55.1295337 Z"></path>
            </g>
        </g>
    </g>
</svg>